# xmcd
#
# Track frame offsets: 
#        150
#        13552
#        30945
#        46517
#        63530
#        80577
#        92595
#        108035
#        124810
#        142845
#
# Disc length: 2129 seconds
#
# Revision: 4
# Processed by: cddbd v1.5.1PL0 Copyright (c) Steve Scherf et al.
# Submitted via: ExactAudioCopy v0.90b4
#
DISCID=6b084f0a
DTITLE=The Forester Sisters - I Got A Date
DYEAR=1992
DGENRE=Country
TTITLE0=Show Me A Woman
TTITLE1=Redneck Romeo
TTITLE2=I Only Have Eyes For You
TTITLE3=I Got A Date
TTITLE4=Another Shoulder At The Wheel
TTITLE5=What'll You Do About Me
TTITLE6=Wanda
TTITLE7=There Hearts Are Dancing
TTITLE8=Help Me Get Over You
TTITLE9=She Makes It Look Easy
EXTD=more info
EXTT0=
EXTT1=
EXTT2=
EXTT3=
EXTT4=
EXTT5=
EXTT6=
EXTT7=
EXTT8=
EXTT9=
PLAYORDER=
